<?xml version="1.0" standalone="no"?>
<!DOCTYPE svg PUBLIC "-//W3C//DTD SVG 20010904//EN"
 "http://www.w3.org/TR/2001/REC-SVG-20010904/DTD/svg10.dtd">
<svg version="1.0" xmlns="http://www.w3.org/2000/svg"
 width="1280.000000pt" height="800.000000pt" viewBox="0 0 1280.000000 800.000000"
 preserveAspectRatio="xMidYMid meet">

<g transform="translate(0.000000,800.000000) scale(0.100000,-0.100000)"
fill="#000000" stroke="none">
<path d="M327 6163 c-16 -16 -3 -60 69 -224 193 -444 335 -657 574 -860 l95
-81 17 -81 c28 -129 72 -207 191 -336 118 -127 183 -178 294 -226 l77 -34 32
-75 c48 -115 117 -210 238 -331 120 -120 230 -199 367 -265 81 -39 89 -46 135
-113 62 -91 170 -201 253 -256 34 -24 114 -67 177 -97 l114 -53 0 -655 0 -656
23 -5 c12 -3 1527 -4 3367 -3 l3345 3 5 640 5 640 135 45 c266 89 425 204 563
406 38 56 50 66 130 105 140 68 234 135 358 259 125 124 199 225 246 339 l28
68 109 52 c104 50 116 59 219 164 165 170 203 232 237 387 16 70 24 88 47 105
71 51 187 162 259 247 147 175 226 314 374 652 72 167 88 211 80 227 -6 10
-16 19 -23 19 -8 0 -110 -56 -228 -125 -514 -302 -980 -489 -1618 -649 -533
-135 -1098 -220 -1696 -255 -240 -15 -1229 -53 -1262 -49 -25 3 545 273 1361
645 156 71 182 91 155 118 -15 15 -167 14 -1725 -5 -1842 -22 -1813 -21 -1933
-75 -91 -42 -147 -91 -207 -181 l-56 -84 -81 0 c-243 0 -351 -69 -463 -293
-51 -103 -61 -117 -79 -112 -11 3 -137 10 -280 15 -914 32 -1528 112 -2200
285 -633 163 -1084 347 -1608 655 -182 106 -206 118 -220 103z m8208 -462 c-6
-5 -94 -45 -197 -90 l-187 -81 -428 0 c-235 0 -434 -4 -441 -9 -8 -5 -12 -17
-10 -27 3 -18 20 -19 333 -24 l330 -5 -92 -47 -91 -48 -354 0 c-373 0 -400 -3
-406 -46 -2 -11 5 -28 16 -37 16 -14 51 -17 272 -19 l253 -3 -97 -52 c-94 -51
-100 -53 -175 -53 -138 0 -172 -17 -102 -51 l33 -15 -99 -48 c-247 -120 -443
-297 -615 -557 -34 -53 -68 -105 -74 -115 -9 -15 -18 -6 -68 71 -242 371 -564
605 -916 665 -163 28 -377 10 -538 -44 -40 -14 -72 -21 -72 -17 0 4 9 34 20
66 39 113 106 192 189 221 21 8 85 13 156 14 66 0 143 3 171 6 l52 6 5 49 c15
127 119 221 274 248 33 6 595 17 1323 26 1356 17 1533 19 1540 23 2 1 0 -2 -5
-7z m-2782 -822 c98 -33 174 -85 283 -193 110 -111 227 -276 311 -442 26 -51
50 -94 53 -94 3 0 25 39 49 88 118 239 288 455 443 560 66 45 168 92 200 92
57 0 47 -27 -52 -145 -134 -160 -210 -274 -295 -445 -147 -293 -229 -605 -257
-971 l-12 -159 -83 0 -83 0 0 93 c0 516 -190 1024 -553 1481 -54 67 -87 118
-87 133 0 28 5 28 83 2z m-3786 -594 c453 -84 1143 -158 1733 -185 424 -19
418 -19 426 -43 30 -100 218 -160 551 -176 103 -5 201 -14 218 -21 43 -16 65
-39 65 -67 0 -39 25 -77 67 -100 32 -18 335 -113 360 -113 4 0 3 -4 -2 -9 -6
-6 -133 -4 -320 5 -477 21 -1105 53 -1365 69 -129 8 -338 20 -465 25 -597 26
-828 69 -1015 191 -113 74 -217 164 -284 247 -54 66 -126 178 -126 194 0 12
11 10 157 -17z m9027 3 c-22 -73 -146 -225 -264 -326 -245 -209 -452 -262
-1140 -292 -129 -5 -343 -16 -475 -25 -236 -14 -1059 -56 -1470 -74 -115 -5
-214 -6 -218 -2 -5 5 51 25 122 45 236 66 301 101 301 161 0 79 42 94 284 106
212 10 341 32 435 75 61 27 121 81 121 109 0 8 3 15 8 15 47 1 487 22 617 30
541 34 1161 105 1520 174 161 32 168 32 159 4z m-6744 -1360 c0 -7 -10 -40
-23 -74 -20 -56 -46 -87 -324 -380 l-302 -319 205 -3 c130 -1 212 1 224 8 24
13 24 17 -1 -77 -11 -43 -28 -84 -37 -90 -12 -10 -106 -13 -393 -13 -321 0
-378 2 -389 15 -10 12 -8 27 11 80 22 63 36 80 331 388 l308 322 -190 5 c-198
5 -217 10 -205 50 2 8 9 34 15 58 l11 42 379 0 c297 0 380 -3 380 -12z m473
-9 c7 -11 -25 -134 -117 -446 -69 -238 -126 -440 -126 -450 0 -11 5 -24 12
-31 18 -18 -261 -17 -287 1 -17 13 -12 36 114 463 107 360 131 452 122 467
-11 17 -4 17 130 15 115 -2 144 -6 152 -19z m637 6 c8 -9 24 -120 41 -272 16
-140 30 -257 32 -259 6 -7 267 486 267 505 0 11 -8 25 -17 30 -13 7 26 10 135
11 135 0 154 -2 171 -19 17 -17 19 -43 25 -277 13 -552 17 -634 33 -649 13
-13 -2 -15 -120 -15 -112 0 -137 3 -148 16 -10 13 -14 83 -17 301 -3 162 -8
281 -13 276 -5 -5 -78 -139 -162 -298 l-154 -290 -90 -3 -91 -3 -6 38 c-3 21
-17 160 -31 308 -14 149 -27 277 -28 285 -1 8 -58 -122 -126 -289 l-125 -304
23 -18 c23 -19 21 -19 -113 -19 -121 0 -136 2 -145 18 -8 15 32 112 191 461
193 427 199 443 182 462 -17 19 -15 19 128 19 118 0 148 -3 158 -15z m2012 1
c117 -27 143 -69 135 -211 -10 -195 -111 -346 -260 -390 -36 -11 -100 -15
-226 -15 -97 0 -182 -4 -189 -9 -12 -7 -92 -247 -92 -277 0 -7 10 -20 22 -28
21 -15 12 -16 -115 -16 -76 0 -147 5 -158 10 -11 6 -19 21 -19 35 0 14 56 210
125 435 69 225 125 419 125 429 0 11 -10 27 -22 35 -21 15 5 16 297 16 233 0
336 -4 377 -14z m842 -2 c9 -9 16 -33 16 -57 1 -23 9 -225 19 -449 13 -288 22
-412 31 -423 11 -13 -3 -15 -118 -15 -163 0 -162 -1 -159 139 l1 96 -199 2
-200 3 -57 -84 c-60 -87 -71 -127 -40 -145 12 -7 -22 -10 -119 -11 -134 0
-159 6 -159 36 0 7 78 121 173 255 447 629 447 630 437 650 -10 18 -5 19 174
19 154 0 187 -3 200 -16z m600 0 c21 -20 21 -13 -19 -161 -19 -70 -33 -128
-32 -129 4 -3 321 226 342 246 17 17 18 23 7 40 -12 20 -9 20 132 20 151 0
172 -6 164 -46 -2 -10 -87 -76 -189 -147 l-186 -129 44 -152 c100 -346 89
-326 165 -326 40 0 40 0 34 -32 -25 -126 -28 -128 -186 -128 -88 0 -112 3
-129 18 -15 12 -38 76 -82 227 -34 116 -65 213 -68 217 -5 6 -86 -37 -129 -68
-8 -5 -102 -329 -102 -350 0 -16 8 -28 23 -34 14 -6 -29 -9 -129 -9 -122 -1
-154 2 -164 14 -10 12 13 99 118 457 119 406 129 445 116 466 l-14 22 134 0
c109 0 138 -3 150 -16z"/>
<path d="M5636 5397 c-40 -32 -30 -52 34 -66 74 -16 207 -14 217 3 13 21 49
36 90 36 44 0 73 14 58 28 -6 5 -91 13 -190 16 -179 7 -180 6 -209 -17z"/>
<path d="M6927 2641 c-26 -82 -47 -155 -47 -161 0 -8 31 -11 113 -8 99 3 116
6 146 27 45 33 73 99 79 190 6 98 2 101 -138 101 l-106 0 -47 -149z"/>
<path d="M7939 2689 c-21 -30 -78 -111 -128 -181 l-91 -128 138 0 137 0 -3
127 c-2 71 -7 152 -10 182 l-7 54 -36 -54z"/>
</g>
</svg>
